<?xml version="1.0" standalone="no"?><!DOCTYPE svg PUBLIC "-//W3C//DTD SVG 1.1//EN" "http://www.w3.org/Graphics/SVG/1.1/DTD/svg11.dtd"><svg t="1710956943118" class="icon" viewBox="0 0 1024 1024" version="1.1" xmlns="http://www.w3.org/2000/svg" p-id="1227" xmlns:xlink="http://www.w3.org/1999/xlink" width="200" height="200"><path d="M147.8 507.8h93c6.6 0 12 5.4 12 12V852c0 6.6-5.4 12-12 12h-93c-6.6 0-12-5.4-12-12V519.8c0-6.6 5.4-12 12-12zM359.6 400.2h93c6.6 0 12 5.4 12 12v439.7c0 6.6-5.4 12-12 12h-93c-6.6 0-12-5.4-12-12V412.2c0-6.6 5.4-12 12-12zM571.4 523h93c6.6 0 12 5.4 12 12v317c0 6.6-5.4 12-12 12h-93c-6.6 0-12-5.4-12-12V535c0-6.6 5.4-12 12-12zM783.2 585.4h93c6.6 0 12 5.4 12 12V852c0 6.6-5.4 12-12 12h-93c-6.6 0-12-5.4-12-12V597.4c0-6.6 5.4-12 12-12z" fill="#6F2AFF" p-id="1228"></path><path d="M932 893.4H92c-11 0-20-9-20-20s9-20 20-20h840c11 0 20 9 20 20s-9 20-20 20z" fill="#FAD60E" p-id="1229"></path><path d="M829.7 237.8c-32.2 0-58.8 24.5-62.2 55.9l-95 24.2c-10.7-19.2-31.2-32.2-54.6-32.2-14.1 0-27.2 4.7-37.6 12.6L466 210.8c1.7-5.6 2.5-11.5 2.5-17.7 0-34.5-28-62.5-62.5-62.5s-62.5 28-62.5 62.5c0 5.5 0.7 10.7 2 15.8L228.7 293c-10.5-7.9-23.5-12.5-37.5-12.5-34.5 0-62.5 28-62.5 62.5s28 62.5 62.5 62.5 62.5-28 62.5-62.5c0-5.9-0.8-11.6-2.3-17l116.2-83.6c10.6 8.3 24 13.3 38.5 13.3 13.8 0 26.6-4.5 36.9-12.1l114.7 87.9c-1.5 5.3-2.3 11-2.3 16.8 0 34.5 28 62.5 62.5 62.5 31.4 0 57.4-23.2 61.8-53.4l96.5-24.6c11 18 30.8 30.1 53.4 30.1 34.5 0 62.5-28 62.5-62.5 0.1-34.6-27.9-62.6-62.4-62.6zM191.3 365.4c-12.4 0-22.5-10.1-22.5-22.5 0-12.2 9.7-22.1 21.8-22.5h0.7c12.4 0 22.5 10.1 22.5 22.5 0 4.9-1.6 9.5-4.3 13.2-4.1 5.6-10.7 9.3-18.2 9.3z m214.8-149.8h-1.3c-11.8-0.7-21.2-10.5-21.2-22.5 0-12.4 10.1-22.5 22.5-22.5 4.8 0 9.2 1.5 12.8 4 0.6 0.4 1.2 0.8 1.7 1.3 4.9 4.1 8 10.3 8 17.2 0 12.2-9.8 22.2-22 22.5h-0.5z m211.8 110.1c4.2 0 8.1 1.1 11.5 3.1 6.6 3.9 11 11.1 11 19.4 0 12.4-10.1 22.5-22.5 22.5s-22.5-10.1-22.5-22.5c0-11.8 9.1-21.5 20.7-22.4 0.6-0.1 1.2-0.1 1.8-0.1z m211.8-2.9c-2.9 0-5.7-0.5-8.2-1.6-8.4-3.3-14.3-11.4-14.3-20.9 0-8.4 4.7-15.8 11.5-19.6 3.2-1.8 7-2.9 11-2.9 12.4 0 22.5 10.1 22.5 22.5s-10.1 22.5-22.5 22.5z" fill="#A6DB20" p-id="1230"></path></svg>